<?xml version="1.0" encoding="UTF-8" standalone="no" ?>
<!DOCTYPE svg PUBLIC "-//W3C//DTD SVG 1.1//EN" "http://www.w3.org/Graphics/SVG/1.1/DTD/svg11.dtd">
<svg xmlns="http://www.w3.org/2000/svg" xmlns:xlink="http://www.w3.org/1999/xlink" version="1.1" width="73" height="73" viewBox="0 0 73 73" xml:space="preserve">
<desc>Created with Fabric.js 3.6.3</desc>
<defs>
</defs>
<g transform="matrix(1 0 0 1 36.6 36.6)"  >
<path style="stroke: rgb(255,255,255); stroke-width: 0.94; stroke-dasharray: none; stroke-linecap: round; stroke-dashoffset: 0; stroke-linejoin: miter; stroke-miterlimit: 4; fill: rgb(255,255,255); fill-rule: evenodd; opacity: 1;"  transform=" translate(-36.13, -36.13)" d="M 72.266 45.752 L 72.266 65.039 A 30.326 30.326 0 0 1 72.21 66.948 Q 72.009 70.13 71.069 71.069 A 2.63 2.63 0 0 1 70.211 71.607 Q 68.793 72.197 65.769 72.258 A 35.736 35.736 0 0 1 65.039 72.266 L 7.227 72.266 A 30.326 30.326 0 0 1 5.317 72.21 Q 2.136 72.009 1.196 71.069 A 2.63 2.63 0 0 1 0.659 70.211 Q 0.069 68.793 0.007 65.769 A 35.736 35.736 0 0 1 0 65.039 L 0 45.752 A 37.343 37.343 0 0 1 0.044 43.854 Q 0.181 41.187 0.737 40.086 A 1.884 1.884 0 0 1 1.074 39.6 A 2.222 2.222 0 0 1 1.829 39.142 Q 3.107 38.634 5.947 38.544 A 40.834 40.834 0 0 1 7.227 38.525 L 14.453 38.525 L 14.453 0 L 57.813 0 L 57.813 38.525 L 65.039 38.525 A 37.343 37.343 0 0 1 66.937 38.57 Q 69.604 38.706 70.705 39.263 A 1.884 1.884 0 0 1 71.191 39.6 A 2.222 2.222 0 0 1 71.649 40.355 Q 72.157 41.632 72.247 44.472 A 40.834 40.834 0 0 1 72.266 45.752 Z M 69.873 65.039 L 69.873 45.752 A 24.157 24.157 0 0 0 69.843 44.492 Q 69.724 42.234 69.141 41.65 A 1.522 1.522 0 0 0 68.631 41.339 Q 67.775 40.992 65.889 40.931 A 26.396 26.396 0 0 0 65.039 40.918 L 7.227 40.918 A 24.157 24.157 0 0 0 5.967 40.948 Q 3.709 41.067 3.125 41.65 A 1.522 1.522 0 0 0 2.813 42.16 Q 2.466 43.016 2.406 44.903 A 26.396 26.396 0 0 0 2.393 45.752 L 2.393 65.039 Q 2.393 67.936 3.127 68.882 A 1.455 1.455 0 0 0 3.247 69.019 A 1.971 1.971 0 0 0 3.884 69.422 Q 4.855 69.83 6.808 69.869 A 21.189 21.189 0 0 0 7.227 69.873 L 65.039 69.873 Q 67.936 69.873 68.882 69.139 A 1.455 1.455 0 0 0 69.019 69.019 A 1.971 1.971 0 0 0 69.422 68.381 Q 69.831 67.411 69.869 65.457 A 21.189 21.189 0 0 0 69.873 65.039 Z M 16.846 38.525 L 55.42 38.525 L 55.42 2.393 L 16.846 2.393 L 16.846 38.525 Z M 61.426 54.443 L 61.426 56.396 A 5.202 5.202 0 0 1 61.247 57.826 Q 60.787 59.43 59.151 59.856 A 5.323 5.323 0 0 1 57.813 60.01 L 14.453 60.01 A 5.202 5.202 0 0 1 13.023 59.831 Q 11.42 59.371 10.994 57.735 A 5.323 5.323 0 0 1 10.84 56.396 L 10.84 54.443 Q 10.84 52.218 11.511 51.527 A 1.187 1.187 0 0 1 11.524 51.514 A 1.663 1.663 0 0 1 12.058 51.172 Q 12.865 50.83 14.453 50.83 L 57.813 50.83 Q 60.038 50.83 60.729 51.501 A 1.187 1.187 0 0 1 60.742 51.514 A 1.663 1.663 0 0 1 61.084 52.048 Q 61.426 52.855 61.426 54.443 Z M 49.365 19.238 L 49.365 21.68 L 22.9 21.68 L 22.9 19.238 L 49.365 19.238 Z M 49.365 9.619 L 49.365 12.012 L 22.9 12.012 L 22.9 9.619 L 49.365 9.619 Z M 49.365 28.906 L 49.365 31.299 L 22.9 31.299 L 22.9 28.906 L 49.365 28.906 Z" stroke-linecap="round" />
</g>
</svg>