<?xml version="1.0" encoding="UTF-8" standalone="no"?>
<!DOCTYPE svg PUBLIC "-//W3C//DTD SVG 1.1//EN" "http://www.w3.org/Graphics/SVG/1.1/DTD/svg11.dtd">
<svg xmlns="http://www.w3.org/2000/svg" xmlns:xlink="http://www.w3.org/1999/xlink" version="1.1" width="216pt" height="216pt" viewBox="0 0 216 216">
<g enable-background="new">
<g id="Layer-1" data-name="Layer 1">
<path transform="matrix(1,0,0,-1,0,216)" d="M 120.4648 179.4302 C 120.4648 169.6011 120.496 161.4325 131.4635 161.4325 C 147.2114 161.4325 148.5275 169.2743 152.9612 168.7507 C 156.5637 168.3255 156.064 166.432 160.4599 166.432 C 167.5332 166.432 167.9973 172.4811 171.4618 174.4274 C 176.6999 177.3703 181.2438 172.9301 183.4569 182.4299 C 191.6235 182.4299 196.8327 183.9467 197.4552 191.4287 L 163.8748 192.8441 C 143.3914 195.7978 133.1923 202.1063 128.2569 195.6353 C 126.4836 193.3104 127.4528 193.2661 124.973 190.9199 C 123.1707 189.2146 120.4648 189.5978 120.4648 179.4302 " fill="#fbfbfb" fill-rule="evenodd"/>
<path transform="matrix(1,0,0,-1,0,216)" d="M 24.4769 191.4287 C 25.0478 184.5689 31.7256 182.4299 39.475 182.4299 C 40.3424 172.0086 46.9738 179.568 53.333 171.2908 C 59.2157 163.6342 63.5734 167.5916 71.4711 169.4316 C 78.4732 158.9749 97.1379 159.0922 99.6917 166.2077 C 101.1498 170.2698 102.0892 180.4088 100.7776 185.7396 C 99.8575 189.4805 91.9823 198.4277 89.4688 198.4277 C 80.9578 198.4277 80.5141 197.3713 73.6064 195.2926 C 64.315 192.4965 51.628 192.4767 41.4405 192.4628 C 34.95 192.454 31.7716 191.4287 24.4769 191.4287 " fill="#fbfbfb" fill-rule="evenodd"/>
<path transform="matrix(1,0,0,-1,0,216)" d="M 124.4645 140.4351 C 137.1722 140.4351 130.1706 144.4346 140.4624 144.4346 C 140.3668 140.142 139.3943 139.0816 136.6858 137.2127 C 123.6883 128.2436 102.399 134.1995 91.6869 124.2187 C 74.2071 107.9317 89.3018 95.4408 92.4684 95.4408 C 95.7359 95.4408 101.9015 99.0828 104.4669 100.4403 C 103.2471 105.0086 87.4276 113.2455 112.4351 117.4689 C 119.1594 118.6044 124.7856 119.5237 130.6023 121.299 C 160.5594 130.443 159.5092 155.4333 130.4637 155.4333 C 126.451 155.4333 121.9158 152.176 120.2165 149.5695 C 116.5051 143.8767 122.6891 140.4351 124.4645 140.4351 " fill="#fbfbfb" fill-rule="evenodd"/>
<path transform="matrix(1,0,0,-1,0,216)" d="M 122.4646 110.4389 C 122.4646 102.1238 110.6649 99.5956 104.1593 96.7484 C 87.2439 89.3449 81.6925 75.9994 94.4683 67.4444 C 97.9469 68.2549 102.4543 70.8497 105.4667 72.4436 C 104.6897 75.3537 103.1102 76.3379 101.4673 79.4429 C 108.9011 87.9953 110.9015 87.0199 121.6256 91.2807 C 135.9351 96.9659 143.4322 107.5368 135.4629 119.4378 L 126.0938 116.7619 C 118.3368 115.1637 122.4646 115.8372 122.4646 110.4389 " fill="#fbfbfb" fill-rule="evenodd"/>
<path transform="matrix(1,0,0,-1,0,216)" d="M 100.4675 203.4272 C 100.4675 196.6068 106.3865 198.4042 106.539 189.5014 L 108.1199 141.0885 C 108.3161 135.0822 109.0641 133.5328 111.4659 133.4361 C 116.178 133.2468 114.4655 142.0994 114.4655 155.4333 C 114.4655 163.7501 114.3283 172.1696 114.4256 180.47 C 114.5871 194.2659 116.9544 193.7443 119.8344 200.1078 C 127.0106 215.9643 100.4675 220.6338 100.4675 203.4272 " fill="#fbfbfb" fill-rule="evenodd"/>
<path transform="matrix(1,0,0,-1,0,216)" d="M 107.4665 78.4429 C 107.4665 75.4622 107.2091 72.3912 111.6329 74.0395 C 118.0284 76.4226 111.3358 84.9416 116.8481 83.8497 C 119.967 83.2317 124.8565 77.027 112.0674 71.8424 C 107.0838 69.8221 105.4185 69.4406 101.2348 66.6768 C 97.5538 64.245 95.5358 62.5612 93.7718 58.0482 C 91.6707 52.6725 93.8356 50.3782 96.4678 46.4471 C 104.182 48.2443 105.2762 50.3717 105.0531 52.3131 C 104.7107 56.1864 104.5392 56.9117 108.6934 59.2183 C 119.086 64.9888 133.4633 64.5868 133.4633 80.4427 C 133.4633 83.6169 129.3347 90.4414 127.4641 90.4414 C 124.7216 90.4414 119.0324 87.4137 115.5807 86.3269 C 111.2488 84.9628 107.4665 84.494 107.4665 78.4429 " fill="#fbfbfb" fill-rule="evenodd"/>
<path transform="matrix(1,0,0,-1,0,216)" d="M 69.4712 142.435 C 69.4712 132.0146 80.4591 124.4373 85.4694 124.4373 C 85.8515 124.4373 99.3206 133.1235 97.4679 133.4361 C 81.6769 136.101 76.9017 147.0081 85.5048 144.375 C 87.5906 143.7367 91.9293 140.4351 96.4678 140.4351 C 106.6297 140.4351 108.0439 155.4333 86.4692 155.4333 C 78.8598 155.4333 69.4712 150.2229 69.4712 142.435 " fill="#fbfbfb" fill-rule="evenodd"/>
<path transform="matrix(1,0,0,-1,0,216)" d="M 116.4654 56.4457 C 114.2671 48.2128 93.0365 48.2357 97.4659 35.5453 C 98.8367 31.6182 100.3105 29.5639 105.4667 29.4491 C 105.4667 43.0393 112.4121 38.3587 120.8585 43.0537 C 126.9836 46.4587 130.8166 61.4452 121.4649 61.4452 C 117.2486 61.4452 111.8662 58.8107 109.5497 57.2703 C 108.6316 56.6597 107.2454 55.7714 107.9495 53.8846 C 109.9131 49.7027 111.7505 55.1869 116.4654 56.4457 " fill="#fbfbfb" fill-rule="evenodd"/>
<path transform="matrix(1,0,0,-1,0,216)" d="M 113.4658 35.4484 C 115.5679 33.6796 111.8027 31.9694 104.0644 26.852 C 101.8576 25.3928 100.7603 24.6827 98.7123 23.2053 C 96.5282 21.63 95.2356 21.3242 94.4683 18.4504 C 96.5228 18.6214 126.464 28.0681 126.464 39.4478 C 126.464 43.7513 123.6404 42.0075 121.0918 40.9935 C 115.9067 38.9307 106.416 37.3844 108.1108 32.726 C 108.991 30.3075 112.2327 34.3766 113.4658 35.4484 " fill="#fbfbfb" fill-rule="evenodd"/>
<path transform="matrix(1,0,0,-1,0,216)" d="M 107.4665 11.4514 C 107.4665 9.0207 107.316 8.6834 107.9688 6.0208 C 108.6437 3.2669 110.5943 1.6174 111.9991 2.9486 C 113.3053 4.1862 112.5938 21.4569 116.4654 21.45 C 120.776 21.45 121.2888 19.4505 127.4641 19.4505 C 124.7346 29.6719 107.4665 26.9889 107.4665 11.4514 " fill="#fbfbfb" fill-rule="evenodd"/>
<path transform="matrix(1,0,0,-1,0,216)" d="M 107.4665 110.4389 L 108.4663 101.4401 C 111.524 102.1524 112.3095 102.9957 114.4655 104.4397 C 114.2385 115.7119 115.0634 115.4648 109.5316 115.0245 C 107.2536 114.8434 107.2704 112.2038 107.4665 110.4389 " fill="#fbfbfb" fill-rule="evenodd"/>
</g>
</g>
</svg>
